<?xml version="1.0" encoding="UTF-8"?>
<svg xmlns="http://www.w3.org/2000/svg" viewBox="0 0 100 100">
  <!-- Background -->
  <rect x="0" y="0" width="100" height="100" rx="10" fill="#f8f0ff"/>
  
  <!-- Device frame -->
  <rect x="20" y="10" width="60" height="80" rx="10" fill="#ff9ee5" stroke="#ff6ec7" stroke-width="2"/>
  <rect x="25" y="15" width="50" height="40" rx="5" fill="#d4f4ff" stroke="#a0e0ff" stroke-width="1"/>
  
  <!-- Character body -->
  <rect x="35" y="20" width="30" height="40" rx="15" fill="#b967ff"/>
  
  <!-- Devil horns -->
  <path d="M25 25 L30 15 L35 25" fill="#b967ff"/>
  <path d="M75 25 L70 15 L65 25" fill="#b967ff"/>
  
  <!-- Mischievous eyes -->
  <circle cx="40" cy="35" r="5" fill="white" stroke="#d4a0ff" stroke-width="0.5"/>
  <circle cx="60" cy="35" r="5" fill="white" stroke="#d4a0ff" stroke-width="0.5"/>
  <circle cx="40" cy="35" r="2.5" fill="black"/>
  <circle cx="60" cy="35" r="2.5" fill="black"/>
  <circle cx="41.5" cy="33.5" r="1" fill="white"/>
  <circle cx="61.5" cy="33.5" r="1" fill="white"/>
  
  <!-- Blush marks -->
  <circle cx="33" cy="40" r="3" fill="#ff9eb5" opacity="0.7"/>
  <circle cx="67" cy="40" r="3" fill="#ff9eb5" opacity="0.7"/>
  
  <!-- Mischievous grin -->
  <path d="M45 45 C48 48 52 48 55 45" stroke="black" stroke-width="1.5" fill="none"/>
  <path d="M45 45 C48 47 52 47 55 45" stroke="black" stroke-width="1.5" fill="none"/>
  
  <!-- Playful arms -->
  <path d="M30 45 C25 42 25 38 28 35" stroke="#b967ff" stroke-width="4" stroke-linecap="round"/>
  <path d="M70 45 C75 42 75 38 72 35" stroke="#b967ff" stroke-width="4" stroke-linecap="round"/>
  
  <!-- Little feet -->
  <ellipse cx="40" cy="60" rx="6" ry="3" fill="#b967ff"/>
  <ellipse cx="60" cy="60" rx="6" ry="3" fill="#b967ff"/>
  
  <!-- Tamagotchi device buttons -->
  <circle cx="35" cy="70" r="3" fill="#ff6ec7" stroke="#ff4eb8" stroke-width="1"/>
  <circle cx="50" cy="70" r="3" fill="#ff6ec7" stroke="#ff4eb8" stroke-width="1"/>
  <circle cx="65" cy="70" r="3" fill="#ff6ec7" stroke="#ff4eb8" stroke-width="1"/>
</svg> 